<?xml version="1.0" standalone="no"?>
<!DOCTYPE svg PUBLIC "-//W3C//DTD SVG 20010904//EN"
 "http://www.w3.org/TR/2001/REC-SVG-20010904/DTD/svg10.dtd">
<svg version="1.0" xmlns="http://www.w3.org/2000/svg"
 width="200.000000pt" height="200.000000pt" viewBox="0 0 200.000000 200.000000"
 preserveAspectRatio="xMidYMid meet">

<g transform="translate(0.000000,200.000000) scale(0.100000,-0.100000)"
fill="#000000" stroke="none">
<path d="M502 1487 c-17 -12 -39 -36 -48 -54 -15 -26 -26 -32 -63 -38 -25 -4
-58 -13 -73 -21 -21 -11 -33 -12 -47 -4 -11 5 -32 10 -48 10 l-28 0 33 -20
c25 -16 32 -25 26 -38 -16 -37 -16 -89 1 -105 34 -35 115 -11 115 34 0 19 -20
39 -39 39 -12 0 -11 -3 2 -18 21 -23 7 -45 -24 -40 -52 7 -23 79 37 91 61 11
70 2 93 -96 12 -51 21 -97 21 -103 0 -8 -112 -71 -182 -102 -5 -2 8 33 27 79
20 45 33 84 31 86 -3 3 -24 2 -48 -2 -29 -5 -53 -18 -77 -42 -39 -39 -37 -51
7 -26 17 10 33 15 36 12 4 -3 -16 -53 -43 -110 -27 -57 -55 -124 -62 -149 -10
-32 -30 -61 -70 -100 -58 -56 -79 -99 -79 -164 0 -29 1 -29 30 17 20 32 44 54
75 69 l45 22 39 -22 c38 -22 84 -28 116 -16 14 6 11 9 -13 20 -100 42 -84 195
31 287 42 34 128 87 140 87 16 0 1 -195 -19 -262 -7 -22 3 -22 52 -2 31 13 35
18 22 25 -18 10 -32 54 -22 70 4 6 13 4 25 -7 16 -14 24 -15 44 -6 36 17 39
33 22 109 -8 38 -13 70 -11 72 7 7 44 -84 44 -110 0 -52 -64 -105 -96 -78 -20
16 -28 5 -15 -20 14 -25 53 -37 77 -23 9 5 36 7 58 5 38 -5 40 -4 21 10 -17
13 -18 18 -7 41 26 58 12 133 -36 196 -15 19 -27 37 -27 40 0 3 -12 17 -26 32
-62 66 -90 239 -48 307 11 18 18 35 16 37 -1 2 -17 -7 -35 -19z"/>
<path d="M1050 1381 c-6 -12 -7 -21 -3 -21 4 0 -1 -7 -11 -15 -20 -15 -20 -15
1 -15 38 0 55 -33 53 -102 -3 -97 -3 -98 28 -98 33 0 59 34 42 54 -7 9 -7 34
0 82 5 38 10 72 10 75 0 14 -31 18 -55 7 -29 -13 -64 7 -45 26 8 8 14 7 21 -4
8 -12 9 -11 7 5 -4 27 -34 31 -48 6z m83 -195 c4 -10 1 -13 -9 -9 -15 6 -19
23 -5 23 5 0 11 -7 14 -14z"/>
<path d="M1910 1338 c-23 -19 -34 -20 -122 -15 -59 4 -110 2 -128 -4 -20 -7
-35 -8 -43 -1 -16 12 -57 22 -57 14 0 -4 7 -16 15 -26 19 -25 21 -196 3 -214
-8 -8 -8 -15 2 -27 9 -11 11 -40 8 -100 -4 -72 -8 -89 -28 -110 -22 -23 -22
-25 -4 -24 10 0 28 4 39 8 15 6 29 1 56 -24 33 -30 87 -52 205 -84 53 -14 82
-46 86 -96 l3 -40 28 27 c44 44 32 125 -25 171 -23 18 -32 164 -12 202 8 15
12 30 9 33 -7 8 -45 -29 -61 -60 -10 -19 -22 -28 -39 -28 -30 0 -32 -11 -5
-35 22 -20 27 -64 8 -83 -18 -18 -79 -14 -112 7 -49 33 -66 69 -66 142 0 52 4
68 16 73 40 15 73 -36 59 -91 -6 -27 -6 -27 14 -9 16 14 21 31 21 66 0 36 4
49 18 55 16 6 16 7 0 16 -10 6 -18 21 -18 34 0 30 -11 32 -28 4 -10 -15 -21
-19 -45 -17 -32 3 -32 3 -35 65 -3 58 -1 63 25 80 32 21 125 25 145 5 10 -10
10 -17 0 -32 -16 -26 -15 -32 6 -28 9 1 28 -5 42 -15 35 -24 39 -22 33 18 -3
19 0 62 6 96 7 33 11 62 9 64 -2 2 -14 -6 -28 -17z"/>
<path d="M787 1315 c-21 -10 -34 -12 -47 -5 -24 13 -110 13 -130 0 -12 -8 -9
-10 13 -10 35 0 83 -24 91 -45 10 -28 7 -173 -4 -180 -8 -5 -7 -11 1 -21 15
-19 14 -125 -1 -155 -11 -20 -11 -21 11 -14 28 9 52 9 95 0 21 -5 47 0 82 15
58 25 82 21 82 -12 l1 -23 19 24 c26 31 26 85 -1 156 -12 33 -19 71 -17 91 2
19 1 34 -3 34 -10 0 -39 -65 -39 -88 0 -11 -7 -25 -15 -32 -24 -20 -18 -38 10
-32 36 6 33 -20 -6 -52 -33 -28 -95 -36 -117 -14 -15 15 -16 82 -2 108 7 13 7
21 0 25 -16 10 -12 182 5 215 17 34 12 36 -28 15z"/>
<path d="M1303 1304 c-42 -21 -60 -50 -79 -126 -8 -35 -19 -71 -24 -80 -6 -11
-7 -25 -1 -35 5 -10 14 -40 20 -68 21 -86 79 -129 171 -125 30 1 71 3 92 3
l36 1 7 64 c4 35 5 66 2 68 -2 3 -14 -11 -26 -31 -47 -80 -146 -81 -182 -1
-22 50 -24 85 -4 92 12 5 12 9 -1 29 -12 18 -13 31 -4 70 6 26 15 56 21 66 15
29 66 51 99 44 32 -7 90 -66 90 -92 0 -9 3 -14 6 -10 3 3 7 35 8 70 l1 64 -74
7 c-105 9 -122 8 -158 -10z"/>
<path d="M1100 1106 c0 -8 -11 -28 -25 -44 -30 -36 -33 -86 -9 -199 16 -79 59
-199 75 -209 5 -3 9 95 9 230 l0 236 -25 0 c-15 0 -25 -6 -25 -14z"/>
<path d="M850 780 c0 -5 5 -10 11 -10 5 0 7 5 4 10 -3 6 -8 10 -11 10 -2 0 -4
-4 -4 -10z"/>
<path d="M896 774 c-9 -24 -8 -29 14 -54 11 -13 20 -27 20 -31 0 -16 -21 -20
-38 -8 -16 12 -16 12 -1 -4 17 -20 44 -14 54 11 3 9 -3 28 -15 45 -12 15 -19
35 -16 43 3 8 1 14 -3 14 -5 0 -12 -7 -15 -16z"/>
<path d="M977 784 c-12 -13 -8 -34 14 -63 13 -17 18 -35 14 -43 -4 -7 0 -5 10
4 17 16 17 18 -1 45 -10 15 -21 36 -24 46 -3 10 -8 15 -13 11z"/>
<path d="M1208 730 c3 -40 8 -60 17 -60 8 0 11 9 7 25 -6 34 2 31 28 -10 12
-19 26 -35 31 -35 5 0 1 12 -8 27 -10 15 -18 45 -18 68 0 37 -2 40 -30 43
l-30 3 3 -61z m47 27 c0 -26 -20 -25 -23 2 -3 16 1 22 10 19 7 -3 13 -12 13
-21z"/>
<path d="M808 745 c2 -19 -1 -48 -6 -65 -11 -29 -10 -30 16 -24 46 10 52 13
51 26 0 10 -2 10 -6 1 -2 -7 -14 -13 -25 -13 -14 0 -19 6 -16 23 2 14 9 21 21
21 9 -1 17 2 17 7 0 5 -7 9 -16 9 -12 0 -15 7 -12 25 4 19 1 25 -11 25 -13 0
-16 -7 -13 -35z"/>
<path d="M1308 720 l4 -60 31 1 c24 1 26 3 10 6 -17 3 -23 11 -23 31 0 15 -3
38 -7 51 -5 21 -3 23 15 19 12 -4 22 -2 22 3 0 5 -12 9 -27 9 -28 0 -28 0 -25
-60z"/>
<path d="M760 759 c0 -5 5 -7 10 -4 6 3 10 8 10 11 0 2 -4 4 -10 4 -5 0 -10
-5 -10 -11z"/>
<path d="M1398 763 c11 -4 14 -21 16 -85 1 -22 13 -38 28 -38 4 0 3 12 -2 26
-16 41 -13 87 5 80 8 -3 15 -1 15 4 0 6 -8 10 -17 10 -10 0 -27 2 -38 4 -11 2
-14 1 -7 -1z"/>
<path d="M690 740 c0 -11 4 -20 10 -20 5 0 20 -16 32 -35 26 -39 38 -44 38
-16 0 16 -61 91 -74 91 -3 0 -6 -9 -6 -20z"/>
<path d="M1487 708 c3 -24 10 -51 15 -60 12 -24 45 -41 53 -28 3 5 -3 10 -14
10 -22 0 -30 18 -35 76 -2 21 -8 40 -14 42 -6 2 -8 -13 -5 -40z"/>
<path d="M634 724 c20 -20 20 -53 0 -82 -26 -37 -36 -26 -32 33 4 75 -15 65
-23 -11 -3 -32 -4 -61 -3 -62 7 -10 73 33 83 54 20 45 8 84 -27 84 -10 0 -10
-3 2 -16z"/>
<path d="M1340 720 c0 -5 5 -10 10 -10 6 0 10 5 10 10 0 6 -4 10 -10 10 -5 0
-10 -4 -10 -10z"/>
<path d="M1546 715 c4 -8 8 -15 10 -15 2 0 4 7 4 15 0 8 -4 15 -10 15 -5 0 -7
-7 -4 -15z"/>
<path d="M1592 677 c5 -23 7 -49 5 -59 -3 -9 2 -19 10 -22 22 -9 23 -8 13 19
-14 38 4 30 23 -10 9 -19 22 -35 28 -35 7 0 4 11 -6 27 -10 15 -18 42 -19 62
-1 29 -6 37 -32 47 l-32 13 10 -42z m42 -18 c-11 -18 -24 -8 -24 19 1 26 1 26
15 8 8 -10 12 -23 9 -27z"/>
<path d="M507 687 c-3 -8 -3 -25 0 -36 4 -15 1 -21 -11 -21 -9 0 -16 -4 -16
-9 0 -5 10 -7 22 -3 17 4 20 2 16 -15 -4 -16 -2 -19 13 -16 14 4 16 9 9 23 -6
10 -10 29 -10 42 0 32 -15 55 -23 35z"/>
<path d="M965 680 c3 -5 11 -10 16 -10 6 0 7 5 4 10 -3 6 -11 10 -16 10 -6 0
-7 -4 -4 -10z"/>
<path d="M1688 644 c3 -22 7 -31 12 -24 5 8 20 -5 44 -41 20 -30 36 -46 36
-36 0 13 -84 137 -94 137 -1 0 0 -16 2 -36z"/>
<path d="M424 645 c-8 -13 -13 -28 -10 -33 3 -5 1 -24 -4 -41 -8 -28 -7 -32 6
-27 9 3 17 6 19 6 2 0 1 8 -2 18 -2 9 0 36 5 60 11 48 9 52 -14 17z"/>
<path d="M676 645 c-3 -8 -1 -15 4 -15 13 0 22 18 11 24 -5 3 -11 -1 -15 -9z"/>
<path d="M1757 635 c3 -8 9 -12 14 -9 12 7 11 11 -5 17 -10 4 -13 1 -9 -8z"/>
<path d="M349 628 c-8 -25 -8 -58 1 -53 6 4 10 -4 10 -19 0 -14 4 -26 9 -26
17 0 20 30 5 65 -12 30 -22 42 -25 33z"/>
<path d="M1790 607 c0 -7 11 -28 25 -47 33 -44 34 -71 3 -44 l-23 19 19 -22
c11 -13 25 -23 33 -23 21 0 15 36 -13 69 -14 17 -23 38 -20 46 3 9 0 15 -9 15
-8 0 -15 -6 -15 -13z"/>
<path d="M1697 576 c-3 -8 0 -17 7 -19 10 -4 12 1 9 14 -6 23 -9 24 -16 5z"/>
<path d="M455 570 c-3 -5 -2 -10 4 -10 5 0 13 5 16 10 3 6 2 10 -4 10 -5 0
-13 -4 -16 -10z"/>
<path d="M1885 570 c3 -5 8 -10 11 -10 2 0 4 5 4 10 0 6 -5 10 -11 10 -5 0 -7
-4 -4 -10z"/>
<path d="M323 526 c-9 -28 -8 -34 3 -29 8 3 14 18 14 34 0 38 -4 37 -17 -5z"/>
</g>
</svg>
