<?xml version="1.0" standalone="no"?>
<!DOCTYPE svg PUBLIC "-//W3C//DTD SVG 20010904//EN"
 "http://www.w3.org/TR/2001/REC-SVG-20010904/DTD/svg10.dtd">
<svg version="1.0" xmlns="http://www.w3.org/2000/svg"
 width="512.000000pt" height="512.000000pt" viewBox="0 0 512.000000 512.000000"
 preserveAspectRatio="xMidYMid meet">

<g transform="translate(0.000000,512.000000) scale(0.100000,-0.100000)"
fill="#000000" stroke="none">
<path d="M2148 4227 c-119 -45 -218 -155 -218 -243 0 -134 133 -264 270 -264
87 0 99 -8 52 -35 -21 -12 -52 -25 -68 -29 -16 -4 -42 -13 -59 -21 -16 -7 -37
-16 -45 -19 -8 -3 -22 -10 -30 -15 -8 -5 -39 -19 -68 -32 -29 -12 -58 -29 -64
-36 -6 -7 -17 -13 -24 -13 -7 0 -40 -18 -71 -40 -60 -41 -112 -102 -151 -178
-22 -42 -22 -48 -22 -490 0 -246 3 -491 7 -545 6 -96 7 -98 44 -135 49 -50
176 -91 193 -63 3 5 20 12 38 15 40 8 84 45 99 83 8 19 13 164 16 428 3 263 8
401 14 404 7 2 10 -39 9 -120 -1 -68 0 -580 4 -1136 6 -1089 4 -1041 55 -1093
54 -55 154 -90 205 -71 15 6 39 11 53 11 14 0 46 17 72 38 88 69 80 -13 82
839 1 417 3 766 6 776 2 9 11 17 19 17 12 0 14 -83 14 -577 1 -617 1 -619 51
-681 44 -54 100 -77 187 -76 117 1 168 33 217 137 17 35 18 87 17 775 -1 405
2 754 4 775 5 31 8 36 20 26 8 -6 14 -21 14 -32 0 -12 20 -39 46 -64 47 -43
47 -43 124 -43 69 0 81 3 117 29 22 16 51 44 64 63 l24 33 3 553 c2 482 1 556
-13 575 -8 12 -15 29 -15 37 0 23 -69 93 -115 116 -59 30 -146 48 -202 41 -88
-10 -188 -29 -198 -37 -5 -5 -28 -11 -50 -15 -22 -4 -46 -12 -53 -18 -7 -5
-29 -13 -50 -17 -20 -5 -68 -20 -107 -35 -38 -14 -83 -30 -100 -34 -16 -5 -63
-21 -103 -36 -41 -14 -76 -24 -78 -22 -3 3 22 33 55 67 37 38 65 77 71 99 14
52 12 142 -5 171 -8 14 -17 32 -21 40 -11 24 -76 80 -118 102 -50 26 -167 34
-218 15z"/>
</g>
</svg>
