<?xml version="1.0" standalone="no"?>
<!DOCTYPE svg PUBLIC "-//W3C//DTD SVG 20010904//EN"
 "http://www.w3.org/TR/2001/REC-SVG-20010904/DTD/svg10.dtd">
<svg version="1.0" xmlns="http://www.w3.org/2000/svg"
 width="1051.000000pt" height="941.000000pt" viewBox="0 0 1051.000000 941.000000"
 preserveAspectRatio="xMidYMid meet">

<g transform="translate(0.000000,941.000000) scale(0.100000,-0.100000)"
fill="#000000" stroke="none">
<path d="M4490 7751 c-14 -11 -49 -28 -79 -36 -30 -9 -61 -23 -69 -32 -8 -8
-32 -25 -52 -38 -51 -32 -143 -141 -164 -194 -10 -25 -21 -80 -26 -124 -8 -68
-7 -84 9 -116 10 -20 21 -52 25 -72 7 -39 27 -67 96 -135 70 -69 88 -83 138
-106 26 -12 52 -27 59 -34 28 -27 315 -28 357 -1 12 8 45 22 74 31 31 11 59
28 68 42 9 13 23 26 33 29 19 6 87 87 134 160 31 48 32 54 35 170 3 97 1 128
-12 155 -33 70 -72 126 -116 168 -25 23 -55 51 -67 63 -12 11 -43 27 -69 35
-26 8 -56 22 -67 31 -15 14 -43 18 -150 21 -120 3 -134 1 -157 -17z"/>
<path d="M6069 7205 c-61 -7 -117 -20 -131 -29 -14 -9 -60 -23 -102 -31 -43
-8 -89 -24 -102 -34 -14 -11 -50 -23 -80 -27 -31 -3 -74 -16 -97 -28 -23 -12
-68 -28 -101 -35 -32 -7 -72 -21 -90 -31 -17 -10 -60 -26 -96 -35 -36 -9 -70
-21 -77 -27 -7 -5 -47 -18 -89 -29 -43 -11 -85 -26 -95 -34 -9 -9 -43 -20 -75
-25 -32 -5 -72 -19 -87 -31 -16 -12 -43 -23 -60 -25 -62 -9 -82 -15 -117 -39
-19 -13 -66 -31 -104 -39 -38 -8 -71 -18 -75 -24 -9 -14 -42 -29 -83 -36 -21
-4 -50 -17 -65 -30 -15 -13 -51 -29 -80 -35 -28 -7 -59 -21 -69 -32 -9 -10
-35 -24 -56 -30 -22 -5 -48 -19 -59 -30 -11 -11 -38 -27 -61 -35 -22 -7 -52
-24 -68 -36 -15 -13 -43 -32 -61 -43 -18 -11 -49 -30 -69 -41 -19 -12 -45 -37
-57 -55 -12 -19 -31 -45 -42 -59 -34 -41 -70 -93 -82 -120 -7 -14 -23 -49 -37
-78 l-24 -54 4 -961 c4 -869 7 -965 21 -992 9 -16 17 -34 17 -38 0 -20 43 -67
92 -101 43 -29 71 -39 141 -51 79 -14 94 -14 169 1 76 15 88 21 146 72 35 30
68 67 74 81 7 17 10 282 9 769 -2 746 0 803 33 815 25 10 64 -5 75 -29 8 -18
11 -597 11 -2118 0 -1568 3 -2102 12 -2127 32 -93 163 -194 285 -219 90 -18
266 10 321 51 128 96 175 158 165 212 -3 15 0 33 6 40 8 10 12 401 15 1378 4
1375 5 1410 38 1430 39 24 79 -59 68 -141 -4 -30 -4 -66 0 -80 4 -14 5 -456 4
-983 -2 -814 -1 -961 12 -985 7 -15 14 -31 14 -37 1 -58 94 -182 150 -200 13
-4 36 -16 50 -26 29 -21 152 -41 207 -34 86 12 110 18 150 36 23 10 46 19 50
19 13 0 85 78 116 125 55 84 53 -12 50 2235 -1 1141 -5 2085 -8 2097 -3 13 1
39 9 58 16 38 38 44 71 19 20 -15 20 -30 26 -722 4 -513 9 -724 18 -768 14
-66 48 -109 131 -164 43 -28 50 -30 156 -30 105 0 114 2 175 32 69 34 127 87
155 140 22 40 22 69 29 1043 3 396 8 756 11 800 10 141 -29 332 -83 404 -48
63 -115 120 -152 127 -16 4 -40 15 -52 27 -12 11 -47 26 -78 33 -70 17 -280
16 -422 -1z"/>
</g>
</svg>
