<?xml version="1.0" standalone="no"?>
<!DOCTYPE svg PUBLIC "-//W3C//DTD SVG 20010904//EN"
 "http://www.w3.org/TR/2001/REC-SVG-20010904/DTD/svg10.dtd">
<svg version="1.0" xmlns="http://www.w3.org/2000/svg"
 width="150.000000pt" height="150.000000pt" viewBox="0 0 150.000000 150.000000"
 preserveAspectRatio="xMidYMid meet">

<g transform="translate(0.000000,150.000000) scale(0.100000,-0.100000)"
fill="#000000" stroke="none">
<path d="M615 1230 c-26 -10 -40 -28 -48 -59 -4 -18 2 -31 23 -52 37 -37 81
-39 115 -4 62 61 -8 149 -90 115z"/>
<path d="M730 1102 c-74 -26 -153 -58 -176 -71 -68 -38 -74 -57 -74 -234 0
-171 5 -187 59 -187 46 0 51 14 51 153 0 83 4 126 10 122 6 -4 10 -130 10
-345 0 -294 2 -341 16 -354 19 -20 64 -21 90 -2 18 13 19 32 24 253 l5 238 5
-188 c5 -172 7 -190 24 -203 27 -19 70 -18 89 4 15 17 17 57 17 365 0 225 4
347 10 347 6 0 10 -48 10 -125 0 -124 0 -126 25 -137 19 -8 31 -8 50 0 25 12
25 12 27 159 3 204 2 215 -23 236 -35 29 -101 20 -249 -31z"/>
</g>
</svg>
