<?xml version="1.0" standalone="no"?>
<!DOCTYPE svg PUBLIC "-//W3C//DTD SVG 20010904//EN"
 "http://www.w3.org/TR/2001/REC-SVG-20010904/DTD/svg10.dtd">
<svg version="1.0" xmlns="http://www.w3.org/2000/svg"
 width="150.000000pt" height="150.000000pt" viewBox="0 0 150.000000 150.000000"
 preserveAspectRatio="xMidYMid meet">

<g transform="translate(0.000000,150.000000) scale(0.100000,-0.100000)"
fill="#000000" stroke="none">
<path d="M593 1435 c-37 -16 -53 -42 -53 -85 0 -44 16 -69 56 -86 29 -12 39
-12 67 -1 45 19 60 41 60 88 0 70 -65 112 -130 84z"/>
<path d="M865 1321 c-171 -63 -342 -143 -367 -171 l-28 -30 0 -233 c0 -168 3
-236 12 -245 16 -16 63 -15 77 1 6 8 12 77 13 177 2 118 6 164 15 167 10 4 13
-97 15 -447 3 -434 4 -452 22 -466 28 -20 73 -17 96 6 20 20 21 32 20 320 -1
165 3 300 7 300 4 0 10 -105 13 -234 5 -212 7 -236 24 -255 25 -27 70 -27 98
1 l21 21 -4 463 c-3 305 -1 464 6 464 6 0 12 -66 15 -169 5 -180 9 -193 54
-193 54 0 56 8 56 221 -1 220 -7 266 -45 299 -31 27 -54 27 -120 3z"/>
</g>
</svg>
